<?xml version="1.0" encoding="UTF-8" standalone="no"?>
<svg
   xmlns:dc="http://purl.org/dc/elements/1.1/"
   xmlns:cc="http://creativecommons.org/ns#"
   xmlns:rdf="http://www.w3.org/1999/02/22-rdf-syntax-ns#"
   xmlns:svg="http://www.w3.org/2000/svg"
   xmlns="http://www.w3.org/2000/svg"
   xmlns:sodipodi="http://sodipodi.sourceforge.net/DTD/sodipodi-0.dtd"
   xmlns:inkscape="http://www.inkscape.org/namespaces/inkscape"
   width="109.45114mm"
   height="137.16054mm"
   viewBox="0 0 109.45114 137.16054"
   version="1.1"
   id="svg2685"
   inkscape:version="1.0.1 (c497b03c, 2020-09-10)"
   sodipodi:docname="header-no-repeat1.svg">
  <defs
     id="defs2679" />
  <sodipodi:namedview
     id="base"
     pagecolor="#ffffff"
     bordercolor="#666666"
     borderopacity="1.0"
     inkscape:pageopacity="0.0"
     inkscape:pageshadow="2"
     inkscape:zoom="0.35"
     inkscape:cx="543.92397"
     inkscape:cy="259.20103"
     inkscape:document-units="mm"
     inkscape:current-layer="layer1"
     inkscape:document-rotation="0"
     showgrid="false"
     fit-margin-top="0"
     fit-margin-left="0"
     fit-margin-right="0"
     fit-margin-bottom="0"
     inkscape:window-width="1440"
     inkscape:window-height="847"
     inkscape:window-x="0"
     inkscape:window-y="25"
     inkscape:window-maximized="0" />
  <metadata
     id="metadata2682">
    <rdf:RDF>
      <cc:Work
         rdf:about="">
        <dc:format>image/svg+xml</dc:format>
        <dc:type
           rdf:resource="http://purl.org/dc/dcmitype/StillImage" />
        <dc:title></dc:title>
      </cc:Work>
    </rdf:RDF>
  </metadata>
  <g
     inkscape:label="レイヤー 1"
     inkscape:groupmode="layer"
     id="layer1"
     transform="translate(38.079885,-79.586395)">
    <g
       id="g2932"
       transform="matrix(0.26458333,0,0,0.26458333,-38.087355,79.588623)">
	
		<rect
   x="170.849"
   y="-37.715"
   transform="rotate(36.84125,206.85759,259.21688)"
   class="st13"
   width="72"
   height="593.81598"
   id="rect2744" />

	
		<rect
   x="184.48399"
   y="-43.042999"
   transform="matrix(0.8004,0.5995,-0.5995,0.8004,184.2585,-62.5421)"
   class="st9"
   width="3.105"
   height="576.87201"
   id="rect2746" />

	
		<rect
   x="186.401"
   y="-40.266998"
   transform="rotate(36.84125,189.61377,248.57694)"
   class="st10"
   width="6.4169998"
   height="577.66101"
   id="rect2748" />

	<line
   class="st16"
   x1="367.03"
   y1="20.587"
   x2="21.111"
   y2="482.23801"
   id="line2750" />

	
		<rect
   x="201.049"
   y="-30.629"
   transform="matrix(0.8001,0.5999,-0.5999,0.8001,195.1731,-69.9995)"
   class="st9"
   width="3.1059999"
   height="576.87097"
   id="rect2752" />

	
		<rect
   x="202.967"
   y="-27.854"
   transform="rotate(36.84125,206.18074,260.99134)"
   class="st10"
   width="6.4169998"
   height="577.66199"
   id="rect2754" />

	<line
   class="st16"
   x1="383.59601"
   y1="33.000999"
   x2="37.678001"
   y2="494.65201"
   id="line2756" />

	
		<rect
   x="217.616"
   y="-18.216"
   transform="matrix(0.8001,0.5999,-0.5999,0.8001,205.9328,-77.456)"
   class="st9"
   width="3.1059999"
   height="576.87097"
   id="rect2758" />

	
		<rect
   x="219.534"
   y="-15.44"
   transform="rotate(36.84125,222.74761,273.40494)"
   class="st10"
   width="6.4169998"
   height="577.66101"
   id="rect2760" />

	<line
   class="st16"
   x1="400.16299"
   y1="45.415001"
   x2="54.244999"
   y2="507.064"
   id="line2762" />

	
		<rect
   x="46.424"
   y="434.51901"
   transform="rotate(36.84125,73.242565,437.86851)"
   class="st7"
   width="53.647999"
   height="6.6240001"
   id="rect2764" />

	
		<rect
   x="49.250999"
   y="432.76801"
   transform="matrix(0.8003,0.5997,-0.5997,0.8003,275.507,41.103)"
   class="st5"
   width="53.605"
   height="2.6900001"
   id="rect2766" />

	<line
   class="st15"
   x1="48.782001"
   y1="425.707"
   x2="91.810997"
   y2="457.94699"
   id="line2768" />

	
		<rect
   x="59.016998"
   y="417.71301"
   transform="rotate(36.84125,85.836312,421.06186)"
   class="st7"
   width="53.647999"
   height="6.625"
   id="rect2770" />

	
		<rect
   x="61.844002"
   y="415.96201"
   transform="rotate(36.84125,88.642095,417.34602)"
   class="st5"
   width="53.605999"
   height="2.6919999"
   id="rect2772" />

	<line
   class="st15"
   x1="61.375"
   y1="408.89999"
   x2="104.403"
   y2="441.14301"
   id="line2774" />

	
		<rect
   x="71.609001"
   y="400.90799"
   transform="rotate(36.84125,98.430559,404.2552)"
   class="st7"
   width="53.647999"
   height="6.6240001"
   id="rect2776" />

	
		<rect
   x="74.435997"
   y="399.15701"
   transform="matrix(0.8003,0.5997,-0.5997,0.8003,260.3823,19.2874)"
   class="st5"
   width="53.605"
   height="2.6900001"
   id="rect2778" />

	<line
   class="st15"
   x1="73.967003"
   y1="392.09601"
   x2="116.996"
   y2="424.33801"
   id="line2780" />

	
		<rect
   x="84.202003"
   y="384.103"
   transform="rotate(36.84125,111.02425,387.4529)"
   class="st7"
   width="53.647999"
   height="6.6240001"
   id="rect2782" />

	
		<rect
   x="87.028999"
   y="382.35001"
   transform="rotate(36.84125,113.83019,383.73251)"
   class="st5"
   width="53.605999"
   height="2.6919999"
   id="rect2784" />

	<line
   class="st15"
   x1="86.559998"
   y1="375.289"
   x2="129.588"
   y2="407.53101"
   id="line2786" />

	
		<rect
   x="96.793999"
   y="367.29599"
   transform="rotate(36.84125,123.6187,370.64184)"
   class="st7"
   width="53.647999"
   height="6.6240001"
   id="rect2788" />

	
		<rect
   x="99.621002"
   y="365.54599"
   transform="matrix(0.8003,0.5997,-0.5997,0.8003,245.2577,-2.5283)"
   class="st5"
   width="53.605"
   height="2.6900001"
   id="rect2790" />

	<line
   class="st15"
   x1="99.152"
   y1="358.48401"
   x2="142.181"
   y2="390.72699"
   id="line2792" />

	
		<rect
   x="109.387"
   y="350.492"
   transform="rotate(36.84125,136.2125,353.83933)"
   class="st7"
   width="53.647999"
   height="6.6240001"
   id="rect2794" />

	
		<rect
   x="112.214"
   y="348.73901"
   transform="rotate(36.84125,139.01848,350.11909)"
   class="st5"
   width="53.605999"
   height="2.6919999"
   id="rect2796" />

	<line
   class="st15"
   x1="111.745"
   y1="341.67999"
   x2="154.77299"
   y2="373.92001"
   id="line2798" />

	
		<rect
   x="121.979"
   y="333.685"
   transform="rotate(36.84125,148.80665,337.02837)"
   class="st7"
   width="53.647999"
   height="6.6240001"
   id="rect2800" />

	
		<rect
   x="124.807"
   y="331.93301"
   transform="rotate(36.84125,151.61113,333.29863)"
   class="st5"
   width="53.604"
   height="2.6919999"
   id="rect2802" />

	<line
   class="st15"
   x1="124.338"
   y1="324.87299"
   x2="167.366"
   y2="357.11499"
   id="line2804" />

	
		<rect
   x="134.57201"
   y="316.88101"
   transform="rotate(36.84125,161.40054,320.22267)"
   class="st7"
   width="53.647999"
   height="6.6240001"
   id="rect2806" />

	
		<rect
   x="137.399"
   y="315.12799"
   transform="rotate(36.84125,164.20693,316.50563)"
   class="st5"
   width="53.605999"
   height="2.6919999"
   id="rect2808" />

	<line
   class="st15"
   x1="136.92999"
   y1="308.06799"
   x2="179.95799"
   y2="340.30899"
   id="line2810" />

	
		<rect
   x="147.16499"
   y="300.073"
   transform="rotate(36.84125,173.99304,303.40725)"
   class="st7"
   width="53.647999"
   height="6.625"
   id="rect2812" />

	
		<rect
   x="149.992"
   y="298.32199"
   transform="rotate(36.84125,176.79803,299.68601)"
   class="st5"
   width="53.604"
   height="2.6919999"
   id="rect2814" />

	<line
   class="st15"
   x1="149.52299"
   y1="291.26199"
   x2="192.55099"
   y2="323.504"
   id="line2816" />

	
		<rect
   x="159.757"
   y="283.26901"
   transform="rotate(36.84125,186.58889,286.6094)"
   class="st7"
   width="53.647999"
   height="6.6240001"
   id="rect2818" />

	
		<rect
   x="162.584"
   y="281.517"
   transform="rotate(36.84125,189.39517,282.89257)"
   class="st5"
   width="53.605999"
   height="2.691"
   id="rect2820" />

	<line
   class="st15"
   x1="162.11501"
   y1="274.457"
   x2="205.144"
   y2="306.69699"
   id="line2822" />

	
		<rect
   x="172.35001"
   y="266.46301"
   transform="rotate(36.84125,199.18269,269.8024)"
   class="st7"
   width="53.647999"
   height="6.6240001"
   id="rect2824" />

	
		<rect
   x="175.17599"
   y="264.71201"
   transform="matrix(0.8003,0.5997,-0.5997,0.8003,199.8868,-67.9752)"
   class="st5"
   width="53.605999"
   height="2.691"
   id="rect2826" />

	<line
   class="st15"
   x1="174.70799"
   y1="257.651"
   x2="217.73599"
   y2="289.89301"
   id="line2828" />

	
		<rect
   x="184.942"
   y="249.658"
   transform="rotate(36.84125,211.77683,252.99594)"
   class="st7"
   width="53.647999"
   height="6.6240001"
   id="rect2830" />

	
		<rect
   x="187.769"
   y="247.90601"
   transform="rotate(36.84125,214.58177,249.27555)"
   class="st5"
   width="53.605999"
   height="2.6919999"
   id="rect2832" />

	<line
   class="st15"
   x1="187.3"
   y1="240.845"
   x2="230.32899"
   y2="273.08701"
   id="line2834" />

	
		<rect
   x="197.535"
   y="232.85201"
   transform="rotate(36.84125,224.37228,236.19289)"
   class="st7"
   width="53.648998"
   height="6.6240001"
   id="rect2836" />

	
		<rect
   x="200.362"
   y="231.101"
   transform="matrix(0.8003,0.5997,-0.5997,0.8003,184.7598,-89.7908)"
   class="st5"
   width="53.605"
   height="2.691"
   id="rect2838" />

	<line
   class="st15"
   x1="199.89301"
   y1="224.03999"
   x2="242.92101"
   y2="256.28101"
   id="line2840" />

	
		<rect
   x="210.127"
   y="216.04601"
   transform="rotate(36.84125,236.96493,219.38293)"
   class="st7"
   width="53.647999"
   height="6.6240001"
   id="rect2842" />

	
		<rect
   x="212.95399"
   y="214.295"
   transform="rotate(36.84125,239.77096,215.66534)"
   class="st5"
   width="53.605"
   height="2.691"
   id="rect2844" />

	<line
   class="st15"
   x1="212.485"
   y1="207.23399"
   x2="255.51401"
   y2="239.476"
   id="line2846" />

	
		<rect
   x="222.72"
   y="199.241"
   transform="rotate(36.84125,249.55862,202.57612)"
   class="st7"
   width="53.647999"
   height="6.6240001"
   id="rect2848" />

	
		<rect
   x="225.547"
   y="197.489"
   transform="rotate(36.84125,252.36481,198.85849)"
   class="st5"
   width="53.605"
   height="2.691"
   id="rect2850" />

	<line
   class="st15"
   x1="225.078"
   y1="190.429"
   x2="268.10599"
   y2="222.67"
   id="line2852" />

	
		<rect
   x="235.313"
   y="182.435"
   transform="rotate(36.84125,262.15287,185.76947)"
   class="st7"
   width="53.647999"
   height="6.6240001"
   id="rect2854" />

	
		<rect
   x="238.14"
   y="180.68401"
   transform="rotate(36.84125,264.95906,182.05183)"
   class="st5"
   width="53.605"
   height="2.691"
   id="rect2856" />

	<line
   class="st15"
   x1="237.67"
   y1="173.623"
   x2="280.69901"
   y2="205.86501"
   id="line2858" />

	
		<rect
   x="247.905"
   y="165.63"
   transform="rotate(36.84125,274.74842,168.96521)"
   class="st7"
   width="53.647999"
   height="6.6240001"
   id="rect2860" />

	
		<rect
   x="250.73199"
   y="163.87801"
   transform="rotate(36.84125,277.55125,165.24302)"
   class="st5"
   width="53.605999"
   height="2.691"
   id="rect2862" />

	<line
   class="st15"
   x1="250.263"
   y1="156.817"
   x2="293.29199"
   y2="189.05901"
   id="line2864" />

	
		<rect
   x="260.49799"
   y="148.82401"
   transform="rotate(36.84125,287.34092,152.1563)"
   class="st7"
   width="53.647999"
   height="6.6240001"
   id="rect2866" />

	
		<rect
   x="263.32401"
   y="147.073"
   transform="matrix(0.8003,0.5997,-0.5997,0.8003,146.9484,-144.3301)"
   class="st5"
   width="53.605"
   height="2.691"
   id="rect2868" />

	<line
   class="st15"
   x1="262.85501"
   y1="140.01199"
   x2="305.884"
   y2="172.25301"
   id="line2870" />

	
		<rect
   x="273.09"
   y="132.019"
   transform="rotate(36.84125,299.93681,135.3516)"
   class="st7"
   width="53.647999"
   height="6.6240001"
   id="rect2872" />

	
		<rect
   x="275.91699"
   y="130.267"
   transform="rotate(36.84125,302.73905,131.63011)"
   class="st5"
   width="53.605999"
   height="2.6919999"
   id="rect2874" />

	<line
   class="st15"
   x1="275.448"
   y1="123.207"
   x2="318.47699"
   y2="155.448"
   id="line2876" />

	
		<rect
   x="285.68301"
   y="115.213"
   transform="rotate(36.84125,312.52891,118.54299)"
   class="st7"
   width="53.647999"
   height="6.6240001"
   id="rect2878" />

	
		<rect
   x="288.51001"
   y="113.461"
   transform="rotate(36.84125,315.33525,114.8253)"
   class="st5"
   width="53.605"
   height="2.6919999"
   id="rect2880" />

	<line
   class="st15"
   x1="288.04099"
   y1="106.401"
   x2="331.069"
   y2="138.642"
   id="line2882" />

	
		<rect
   x="298.27499"
   y="98.407997"
   transform="rotate(36.84125,325.12616,101.73884)"
   class="st7"
   width="53.648998"
   height="6.6240001"
   id="rect2884" />

	
		<rect
   x="301.10199"
   y="96.654999"
   transform="rotate(36.84125,327.92704,98.016794)"
   class="st5"
   width="53.605999"
   height="2.6919999"
   id="rect2886" />

	<line
   class="st15"
   x1="300.633"
   y1="89.595001"
   x2="343.66199"
   y2="121.836"
   id="line2888" />

	
		<rect
   x="310.86801"
   y="81.601997"
   transform="rotate(36.84125,337.72036,84.932029)"
   class="st7"
   width="53.648998"
   height="6.6240001"
   id="rect2890" />

	
		<rect
   x="313.69501"
   y="79.849998"
   transform="matrix(0.8003,0.5997,-0.5997,0.8003,116.6994,-187.9614)"
   class="st5"
   width="53.605"
   height="2.691"
   id="rect2892" />

	<line
   class="st15"
   x1="313.22601"
   y1="72.790001"
   x2="356.254"
   y2="105.031"
   id="line2894" />

	
		<rect
   x="323.45999"
   y="64.795998"
   transform="rotate(36.84125,350.31105,68.12322)"
   class="st7"
   width="53.647999"
   height="6.6240001"
   id="rect2896" />

	
		<rect
   x="326.28699"
   y="63.044998"
   transform="rotate(36.84125,353.11859,64.406134)"
   class="st5"
   width="53.605999"
   height="2.6919999"
   id="rect2898" />

	<line
   class="st15"
   x1="325.81799"
   y1="55.984001"
   x2="368.84698"
   y2="88.224998"
   id="line2900" />

	
		<rect
   x="336.05301"
   y="47.990002"
   transform="rotate(36.84125,362.90495,51.316514)"
   class="st7"
   width="53.647999"
   height="6.6240001"
   id="rect2902" />

	
		<rect
   x="338.88"
   y="46.238998"
   transform="matrix(0.8003,0.5997,-0.5997,0.8003,101.5747,-209.777)"
   class="st5"
   width="53.605"
   height="2.691"
   id="rect2904" />

	<line
   class="st15"
   x1="338.41101"
   y1="39.178001"
   x2="381.439"
   y2="71.419998"
   id="line2906" />

	
		<rect
   x="348.64499"
   y="31.184999"
   transform="rotate(36.84125,375.50325,34.51201)"
   class="st7"
   width="53.648998"
   height="6.6240001"
   id="rect2908" />

	
		<rect
   x="351.47198"
   y="29.434"
   transform="rotate(36.84125,378.30678,30.792921)"
   class="st5"
   width="53.605999"
   height="2.691"
   id="rect2910" />

	<line
   class="st15"
   x1="351.00299"
   y1="22.372999"
   x2="394.03201"
   y2="54.613998"
   id="line2912" />

	
		<rect
   x="34.011002"
   y="451.086"
   transform="rotate(36.84125,60.827462,454.43588)"
   class="st7"
   width="53.647999"
   height="6.6240001"
   id="rect2914" />

	
		<rect
   x="36.838001"
   y="449.33499"
   transform="matrix(0.8003,0.5997,-0.5997,0.8003,282.9615,51.8558)"
   class="st5"
   width="53.605"
   height="2.6900001"
   id="rect2916" />

	<line
   class="st15"
   x1="36.368999"
   y1="442.27301"
   x2="79.397003"
   y2="474.51401"
   id="line2918" />

	
		<rect
   x="21.598"
   y="467.65201"
   transform="rotate(36.84125,48.413059,471.00336)"
   class="st7"
   width="53.647999"
   height="6.6240001"
   id="rect2920" />

	
		<rect
   x="24.424999"
   y="465.901"
   transform="matrix(0.8003,0.5997,-0.5997,0.8003,290.4163,62.6082)"
   class="st5"
   width="53.605"
   height="2.6900001"
   id="rect2922" />

	<line
   class="st15"
   x1="23.955999"
   y1="458.84"
   x2="66.984001"
   y2="491.082"
   id="line2924" />

	
		<rect
   x="9.184"
   y="484.21799"
   transform="rotate(36.84125,35.998156,487.57083)"
   class="st7"
   width="53.647999"
   height="6.6240001"
   id="rect2926" />

	
		<rect
   x="12.011"
   y="482.46701"
   transform="rotate(36.84125,38.803339,483.85519)"
   class="st5"
   width="53.605999"
   height="2.6900001"
   id="rect2928" />

	<line
   class="st15"
   x1="11.542"
   y1="475.40601"
   x2="54.570999"
   y2="507.64801"
   id="line2930" />

</g>
  </g>
  <style
     type="text/css"
     id="style2687">
<![CDATA[
	.st0{fill:url(#XMLID_1_);}
	.st1{fill:url(#XMLID_2_);}
	.st2{fill:url(#XMLID_3_);}
	.st3{fill:#FF80D5;stroke:#FF80D5;stroke-linecap:round;stroke-linejoin:round;}
	.st4{fill:none;stroke:#FFE6F3;stroke-width:4;stroke-linecap:round;stroke-linejoin:round;}
	.st5{opacity:0.5;fill:#C462B8;}
	.st6{fill:#FFCCE9;stroke:#FF80D5;stroke-width:3;}
	.st7{opacity:0.5;fill:#960000;}
	.st8{fill:none;stroke:#FF80D5;stroke-width:2;stroke-linecap:round;}
	.st9{fill:#C462B8;}
	.st10{fill:#960000;}
	.st11{fill:#2C781C;}
	.st12{fill:#FF80D5;}
	.st13{fill:#FFE6F3;}
	.st14{fill:#FFFFFF;}
	.st15{opacity:0.5;fill:none;stroke:#D5E000;stroke-width:2;}
	.st16{fill:none;stroke:#D5E000;stroke-width:2;}
]]>
</style>
</svg>
