<?xml version="1.0" encoding="UTF-8" standalone="no"?>
<svg
   xmlns:dc="http://purl.org/dc/elements/1.1/"
   xmlns:cc="http://creativecommons.org/ns#"
   xmlns:rdf="http://www.w3.org/1999/02/22-rdf-syntax-ns#"
   xmlns:svg="http://www.w3.org/2000/svg"
   xmlns="http://www.w3.org/2000/svg"
   xmlns:sodipodi="http://sodipodi.sourceforge.net/DTD/sodipodi-0.dtd"
   xmlns:inkscape="http://www.inkscape.org/namespaces/inkscape"
   width="142.28629mm"
   height="101.29505mm"
   viewBox="0 0 142.28629 101.29505"
   version="1.1"
   id="svg2685"
   sodipodi:docname="header-no-repeat2.svg"
   inkscape:version="1.0.1 (c497b03c, 2020-09-10)">
  <defs
     id="defs2679" />
  <sodipodi:namedview
     id="base"
     pagecolor="#ffffff"
     bordercolor="#666666"
     borderopacity="1.0"
     inkscape:pageopacity="0.0"
     inkscape:pageshadow="2"
     inkscape:zoom="0.35"
     inkscape:cx="269.17519"
     inkscape:cy="-41.604718"
     inkscape:document-units="mm"
     inkscape:current-layer="layer1"
     inkscape:document-rotation="0"
     showgrid="false"
     inkscape:window-width="1440"
     inkscape:window-height="847"
     inkscape:window-x="0"
     inkscape:window-y="25"
     inkscape:window-maximized="0"
     fit-margin-top="0"
     fit-margin-left="0"
     fit-margin-right="0"
     fit-margin-bottom="0" />
  <metadata
     id="metadata2682">
    <rdf:RDF>
      <cc:Work
         rdf:about="">
        <dc:format>image/svg+xml</dc:format>
        <dc:type
           rdf:resource="http://purl.org/dc/dcmitype/StillImage" />
        <dc:title></dc:title>
      </cc:Work>
    </rdf:RDF>
  </metadata>
  <g
     inkscape:label="レイヤー 1"
     inkscape:groupmode="layer"
     id="layer1"
     transform="translate(-72.693948,-79.588187)">
    <g
       id="g3122"
       transform="matrix(0.26458333,0,0,0.26458333,-38.087355,79.588623)">
	
		<rect
   x="651.58502"
   y="-105.486"
   transform="matrix(0.5429,0.8398,-0.8398,0.5429,475.055,-489.9344)"
   class="st13"
   width="71.999001"
   height="593.81598"
   id="rect2934" />

	
		<rect
   x="671.28998"
   y="-117.17"
   transform="matrix(0.5429,0.8398,-0.8398,0.5429,451.3954,-486.77)"
   class="st9"
   width="3.105"
   height="576.87"
   id="rect2936" />

	
		<rect
   x="671.88702"
   y="-113.352"
   transform="matrix(0.5429,0.8398,-0.8398,0.5429,455.9692,-486.7379)"
   class="st10"
   width="6.4169998"
   height="577.65997"
   id="rect2938" />

	<line
   class="st16"
   x1="920.52301"
   y1="23.107"
   x2="436.064"
   y2="336.28699"
   id="line2940" />

	
		<rect
   x="682.52899"
   y="-99.786003"
   transform="matrix(0.5429,0.8398,-0.8398,0.5429,471.132,-488.2614)"
   class="st9"
   width="3.105"
   height="576.87097"
   id="rect2942" />

	
		<rect
   x="683.12701"
   y="-95.968002"
   transform="matrix(0.5429,0.8398,-0.8398,0.5429,475.7069,-488.2297)"
   class="st10"
   width="6.4169998"
   height="577.66199"
   id="rect2944" />

	<line
   class="st16"
   x1="931.76202"
   y1="40.492001"
   x2="447.30399"
   y2="353.672"
   id="line2946" />

	
		<rect
   x="693.76703"
   y="-82.401001"
   transform="matrix(0.5429,0.8398,-0.8398,0.5429,490.8694,-489.7523)"
   class="st9"
   width="3.105"
   height="576.87"
   id="rect2948" />

	
		<rect
   x="694.36499"
   y="-78.582001"
   transform="matrix(0.5428,0.8399,-0.8399,0.5428,495.5336,-489.7467)"
   class="st10"
   width="6.4159999"
   height="577.66101"
   id="rect2950" />

	<line
   class="st16"
   x1="943"
   y1="57.876999"
   x2="458.54199"
   y2="371.05701"
   id="line2952" />

	
		<rect
   x="473.53601"
   y="309.384"
   transform="matrix(0.5429,0.8398,-0.8398,0.5429,491.3075,-277.2667)"
   class="st7"
   width="53.647999"
   height="6.625"
   id="rect2954" />

	
		<rect
   x="477.47699"
   y="308.836"
   transform="matrix(0.5429,0.8398,-0.8398,0.5429,491.0023,-281.7087)"
   class="st5"
   width="53.605"
   height="2.6900001"
   id="rect2956" />

	<line
   class="st15"
   x1="481.60999"
   y1="292.84601"
   x2="510.80099"
   y2="338"
   id="line2958" />

	
		<rect
   x="491.17099"
   y="297.98401"
   transform="matrix(0.5429,0.8398,-0.8398,0.5429,489.8182,-297.2889)"
   class="st7"
   width="53.646999"
   height="6.6240001"
   id="rect2960" />

	
		<rect
   x="495.11301"
   y="297.43399"
   transform="matrix(0.5429,0.8398,-0.8398,0.5429,489.4805,-301.7311)"
   class="st5"
   width="53.605"
   height="2.6919999"
   id="rect2962" />

	<line
   class="st15"
   x1="499.24701"
   y1="281.44501"
   x2="528.43597"
   y2="326.60001"
   id="line2964" />

	
		<rect
   x="508.80801"
   y="286.58301"
   transform="matrix(0.5429,0.8398,-0.8398,0.5429,488.2879,-317.3107)"
   class="st7"
   width="53.647999"
   height="6.625"
   id="rect2966" />

	
		<rect
   x="512.74799"
   y="286.034"
   transform="matrix(0.5429,0.8398,-0.8398,0.5429,487.9767,-321.7526)"
   class="st5"
   width="53.605"
   height="2.691"
   id="rect2968" />

	<line
   class="st15"
   x1="516.88202"
   y1="270.04501"
   x2="546.073"
   y2="315.19901"
   id="line2970" />

	
		<rect
   x="526.44202"
   y="275.18301"
   transform="matrix(0.5429,0.8398,-0.8398,0.5429,486.7902,-337.3331)"
   class="st7"
   width="53.648998"
   height="6.6230001"
   id="rect2972" />

	
		<rect
   x="530.38397"
   y="274.634"
   transform="matrix(0.5429,0.8398,-0.8398,0.5429,486.4548,-341.7737)"
   class="st5"
   width="53.605"
   height="2.691"
   id="rect2974" />

	<line
   class="st15"
   x1="534.51898"
   y1="258.64401"
   x2="563.70801"
   y2="303.797"
   id="line2976" />

	
		<rect
   x="544.07898"
   y="263.78299"
   transform="matrix(0.5429,0.8398,-0.8398,0.5429,485.2715,-357.3552)"
   class="st7"
   width="53.647999"
   height="6.6230001"
   id="rect2978" />

	
		<rect
   x="548.021"
   y="263.233"
   transform="matrix(0.5429,0.8398,-0.8398,0.5429,484.9514,-361.7972)"
   class="st5"
   width="53.605"
   height="2.691"
   id="rect2980" />

	<line
   class="st15"
   x1="552.15399"
   y1="247.243"
   x2="581.34399"
   y2="292.397"
   id="line2982" />

	
		<rect
   x="561.71503"
   y="252.382"
   transform="matrix(0.5429,0.8398,-0.8398,0.5429,483.7492,-377.3754)"
   class="st7"
   width="53.647999"
   height="6.6240001"
   id="rect2984" />

	
		<rect
   x="565.65601"
   y="251.832"
   transform="matrix(0.5429,0.8398,-0.8398,0.5429,483.438,-381.8184)"
   class="st5"
   width="53.605"
   height="2.6919999"
   id="rect2986" />

	<line
   class="st15"
   x1="569.789"
   y1="235.842"
   x2="598.97998"
   y2="280.996"
   id="line2988" />

	
		<rect
   x="579.34998"
   y="240.981"
   transform="matrix(0.5429,0.8398,-0.8398,0.5429,482.245,-397.3984)"
   class="st7"
   width="53.647999"
   height="6.6230001"
   id="rect2990" />

	
		<rect
   x="583.29199"
   y="240.431"
   transform="matrix(0.5429,0.8398,-0.8398,0.5429,481.9254,-401.8412)"
   class="st5"
   width="53.605"
   height="2.691"
   id="rect2992" />

	<line
   class="st15"
   x1="587.427"
   y1="224.44099"
   x2="616.61499"
   y2="269.59601"
   id="line2994" />

	
		<rect
   x="596.98602"
   y="229.58"
   transform="matrix(0.5429,0.8398,-0.8398,0.5429,480.7392,-417.4224)"
   class="st7"
   width="53.648998"
   height="6.6240001"
   id="rect2996" />

	
		<rect
   x="600.92798"
   y="229.03101"
   transform="matrix(0.5429,0.8398,-0.8398,0.5429,480.4128,-421.863)"
   class="st5"
   width="53.605"
   height="2.691"
   id="rect2998" />

	<line
   class="st15"
   x1="605.06201"
   y1="213.041"
   x2="634.25201"
   y2="258.19501"
   id="line3000" />

	
		<rect
   x="614.62201"
   y="218.179"
   transform="matrix(0.5429,0.8398,-0.8398,0.5429,479.2162,-437.4421)"
   class="st7"
   width="53.648998"
   height="6.6240001"
   id="rect3002" />

	
		<rect
   x="618.56299"
   y="217.63"
   transform="matrix(0.5429,0.8398,-0.8398,0.5429,478.8896,-441.8825)"
   class="st5"
   width="53.605"
   height="2.6919999"
   id="rect3004" />

	<line
   class="st15"
   x1="622.69702"
   y1="201.64101"
   x2="651.888"
   y2="246.79401"
   id="line3006" />

	
		<rect
   x="632.25702"
   y="206.77901"
   transform="matrix(0.5429,0.8398,-0.8398,0.5429,477.7237,-457.4689)"
   class="st7"
   width="53.647999"
   height="6.6230001"
   id="rect3008" />

	
		<rect
   x="636.20001"
   y="206.229"
   transform="matrix(0.5429,0.8398,-0.8398,0.5429,477.3873,-461.9072)"
   class="st5"
   width="53.605"
   height="2.6919999"
   id="rect3010" />

	<line
   class="st15"
   x1="640.33398"
   y1="190.239"
   x2="669.52197"
   y2="235.394"
   id="line3012" />

	
		<rect
   x="649.89398"
   y="195.37801"
   transform="matrix(0.5429,0.8398,-0.8398,0.5429,476.1811,-477.4836)"
   class="st7"
   width="53.650002"
   height="6.6240001"
   id="rect3014" />

	
		<rect
   x="653.83502"
   y="194.82899"
   transform="matrix(0.5429,0.8398,-0.8398,0.5429,475.864,-481.9261)"
   class="st5"
   width="53.605"
   height="2.691"
   id="rect3016" />

	<line
   class="st15"
   x1="657.96899"
   y1="178.838"
   x2="687.16101"
   y2="223.993"
   id="line3018" />

	
		<rect
   x="667.53003"
   y="183.976"
   transform="matrix(0.5429,0.8398,-0.8398,0.5429,474.6534,-497.5009)"
   class="st7"
   width="53.647999"
   height="6.6259999"
   id="rect3020" />

	
		<rect
   x="671.47198"
   y="183.42799"
   transform="matrix(0.5429,0.8398,-0.8398,0.5429,474.3549,-501.9499)"
   class="st5"
   width="53.608002"
   height="2.6919999"
   id="rect3022" />

	<line
   class="st15"
   x1="675.604"
   y1="167.438"
   x2="704.79602"
   y2="212.592"
   id="line3024" />

	
		<rect
   x="685.16498"
   y="172.578"
   transform="matrix(0.5429,0.8398,-0.8398,0.5429,473.1964,-517.5401)"
   class="st7"
   width="53.647999"
   height="6.6220002"
   id="rect3026" />

	
		<rect
   x="689.10699"
   y="172.028"
   transform="matrix(0.5429,0.8398,-0.8398,0.5429,472.8558,-521.9759)"
   class="st5"
   width="53.605999"
   height="2.6900001"
   id="rect3028" />

	<line
   class="st15"
   x1="693.24103"
   y1="156.037"
   x2="722.43103"
   y2="201.19099"
   id="line3030" />

	
		<rect
   x="702.802"
   y="161.175"
   transform="matrix(0.5429,0.8398,-0.8398,0.5429,471.6554,-537.5535)"
   class="st7"
   width="53.647999"
   height="6.6240001"
   id="rect3032" />

	
		<rect
   x="706.74298"
   y="160.625"
   transform="matrix(0.5429,0.8398,-0.8398,0.5429,471.3354,-541.9957)"
   class="st5"
   width="53.605"
   height="2.6930001"
   id="rect3034" />

	<line
   class="st15"
   x1="710.87598"
   y1="144.63699"
   x2="740.06702"
   y2="189.791"
   id="line3036" />

	
		<rect
   x="720.43597"
   y="149.77499"
   transform="matrix(0.5429,0.8398,-0.8398,0.5429,470.16,-557.581)"
   class="st7"
   width="53.647999"
   height="6.6230001"
   id="rect3038" />

	
		<rect
   x="724.37903"
   y="149.226"
   transform="matrix(0.5429,0.8398,-0.8398,0.5429,469.8335,-562.0214)"
   class="st5"
   width="53.604"
   height="2.691"
   id="rect3040" />

	<line
   class="st15"
   x1="728.51501"
   y1="133.23599"
   x2="757.70099"
   y2="178.39101"
   id="line3042" />

	
		<rect
   x="738.073"
   y="138.37399"
   transform="matrix(0.5429,0.8398,-0.8398,0.5429,468.6483,-577.6045)"
   class="st7"
   width="53.647999"
   height="6.6240001"
   id="rect3044" />

	
		<rect
   x="742.01501"
   y="137.825"
   transform="matrix(0.5429,0.8398,-0.8398,0.5429,468.3102,-582.0393)"
   class="st5"
   width="53.605"
   height="2.691"
   id="rect3046" />

	<line
   class="st15"
   x1="746.14899"
   y1="121.835"
   x2="775.33801"
   y2="166.989"
   id="line3048" />

	
		<rect
   x="755.70898"
   y="126.974"
   transform="matrix(0.5429,0.8398,-0.8398,0.5429,467.1171,-597.619)"
   class="st7"
   width="53.647999"
   height="6.6230001"
   id="rect3050" />

	
		<rect
   x="759.64899"
   y="126.425"
   transform="matrix(0.5429,0.8398,-0.8398,0.5429,466.804,-602.0637)"
   class="st5"
   width="53.605999"
   height="2.691"
   id="rect3052" />

	<line
   class="st15"
   x1="763.78302"
   y1="110.434"
   x2="792.97498"
   y2="155.589"
   id="line3054" />

	
		<rect
   x="773.34399"
   y="115.573"
   transform="matrix(0.5429,0.8398,-0.8398,0.5429,465.6036,-617.6402)"
   class="st7"
   width="53.647999"
   height="6.6240001"
   id="rect3056" />

	
		<rect
   x="777.28601"
   y="115.023"
   transform="matrix(0.5429,0.8398,-0.8398,0.5429,465.2915,-622.0867)"
   class="st5"
   width="53.605999"
   height="2.691"
   id="rect3058" />

	<line
   class="st15"
   x1="781.41998"
   y1="99.033997"
   x2="810.60901"
   y2="144.188"
   id="line3060" />

	
		<rect
   x="790.98102"
   y="104.172"
   transform="matrix(0.5429,0.8398,-0.8398,0.5429,464.091,-637.663)"
   class="st7"
   width="53.647999"
   height="6.6230001"
   id="rect3062" />

	
		<rect
   x="794.92102"
   y="103.623"
   transform="matrix(0.5429,0.8398,-0.8398,0.5429,463.7707,-642.1045)"
   class="st5"
   width="53.605"
   height="2.691"
   id="rect3064" />

	<line
   class="st15"
   x1="799.05499"
   y1="87.633003"
   x2="828.24597"
   y2="132.787"
   id="line3066" />

	
		<rect
   x="808.61499"
   y="92.771004"
   transform="matrix(0.5429,0.8398,-0.8398,0.5429,462.585,-657.6879)"
   class="st7"
   width="53.648998"
   height="6.6230001"
   id="rect3068" />

	
		<rect
   x="812.55701"
   y="92.222"
   transform="matrix(0.5429,0.8398,-0.8398,0.5429,462.266,-662.1309)"
   class="st5"
   width="53.605999"
   height="2.691"
   id="rect3070" />

	<line
   class="st15"
   x1="816.69098"
   y1="76.232002"
   x2="845.88098"
   y2="121.387"
   id="line3072" />

	
		<rect
   x="826.25201"
   y="81.371002"
   transform="matrix(0.5429,0.8398,-0.8398,0.5429,461.0729,-677.7107)"
   class="st7"
   width="53.648998"
   height="6.6230001"
   id="rect3074" />

	
		<rect
   x="830.19299"
   y="80.821999"
   transform="matrix(0.5429,0.8398,-0.8398,0.5429,460.7221,-682.1371)"
   class="st5"
   width="53.605999"
   height="2.691"
   id="rect3076" />

	<line
   class="st15"
   x1="834.328"
   y1="64.832001"
   x2="863.51801"
   y2="109.985"
   id="line3078" />

	
		<rect
   x="843.888"
   y="69.970001"
   transform="matrix(0.5429,0.8398,-0.8398,0.5429,459.5372,-697.7208)"
   class="st7"
   width="53.650002"
   height="6.625"
   id="rect3080" />

	
		<rect
   x="847.82898"
   y="69.420998"
   transform="matrix(0.5429,0.8398,-0.8398,0.5429,459.2328,-702.171)"
   class="st5"
   width="53.605"
   height="2.691"
   id="rect3082" />

	<line
   class="st15"
   x1="851.96301"
   y1="53.431"
   x2="881.15399"
   y2="98.584"
   id="line3084" />

	
		<rect
   x="861.52399"
   y="58.569"
   transform="matrix(0.5429,0.8398,-0.8398,0.5429,458.0393,-717.7508)"
   class="st7"
   width="53.647999"
   height="6.6240001"
   id="rect3086" />

	
		<rect
   x="865.46503"
   y="58.019001"
   transform="matrix(0.5429,0.8398,-0.8398,0.5429,457.7041,-722.1848)"
   class="st5"
   width="53.606998"
   height="2.6930001"
   id="rect3088" />

	<line
   class="st15"
   x1="869.59998"
   y1="42.029999"
   x2="898.789"
   y2="87.183998"
   id="line3090" />

	
		<rect
   x="879.15997"
   y="47.167999"
   transform="matrix(0.5429,0.8398,-0.8398,0.5429,456.503,-737.7596)"
   class="st7"
   width="53.648998"
   height="6.6259999"
   id="rect3092" />

	
		<rect
   x="883.09998"
   y="46.618999"
   transform="matrix(0.5429,0.8398,-0.8398,0.5429,456.2146,-742.2194)"
   class="st5"
   width="53.605999"
   height="2.691"
   id="rect3094" />

	<line
   class="st15"
   x1="887.23401"
   y1="30.629"
   x2="916.42603"
   y2="75.782997"
   id="line3096" />

	
		<rect
   x="896.79498"
   y="35.766998"
   transform="matrix(0.5429,0.8398,-0.8398,0.5429,455.0132,-757.7947)"
   class="st7"
   width="53.647999"
   height="6.6240001"
   id="rect3098" />

	
		<rect
   x="900.737"
   y="35.217999"
   transform="matrix(0.5429,0.8398,-0.8398,0.5429,454.6781,-762.2278)"
   class="st5"
   width="53.606998"
   height="2.6919999"
   id="rect3100" />

	<line
   class="st15"
   x1="904.87097"
   y1="19.229"
   x2="934.06097"
   y2="64.383003"
   id="line3102" />

	
		<rect
   x="456.151"
   y="320.62299"
   transform="matrix(0.5429,0.8398,-0.8398,0.5429,492.8076,-257.5297)"
   class="st7"
   width="53.646999"
   height="6.625"
   id="rect3104" />

	
		<rect
   x="460.09201"
   y="320.07501"
   transform="matrix(0.5429,0.8398,-0.8398,0.5429,492.5001,-261.9713)"
   class="st5"
   width="53.605999"
   height="2.691"
   id="rect3106" />

	<line
   class="st15"
   x1="464.22699"
   y1="304.08401"
   x2="493.41501"
   y2="349.23801"
   id="line3108" />

	
		<rect
   x="438.76599"
   y="331.86099"
   transform="matrix(0.5429,0.8398,-0.8398,0.5429,494.3111,-237.793)"
   class="st7"
   width="53.648998"
   height="6.625"
   id="rect3110" />

	
		<rect
   x="442.707"
   y="331.31299"
   transform="matrix(0.5429,0.8398,-0.8398,0.5429,493.9965,-242.2342)"
   class="st5"
   width="53.606998"
   height="2.691"
   id="rect3112" />

	<line
   class="st15"
   x1="446.841"
   y1="315.32199"
   x2="476.03"
   y2="360.47699"
   id="line3114" />

	
		<rect
   x="421.38"
   y="343.099"
   transform="matrix(0.5429,0.8398,-0.8398,0.5429,495.7934,-218.0562)"
   class="st7"
   width="53.648998"
   height="6.625"
   id="rect3116" />

	
		<rect
   x="425.32101"
   y="342.552"
   transform="matrix(0.5429,0.8398,-0.8398,0.5429,495.4797,-222.4971)"
   class="st5"
   width="53.606998"
   height="2.691"
   id="rect3118" />

	<line
   class="st15"
   x1="429.45599"
   y1="326.561"
   x2="458.646"
   y2="371.715"
   id="line3120" />

</g>
  </g>
  <style
     type="text/css"
     id="style2687">
<![CDATA[
	.st0{fill:url(#XMLID_1_);}
	.st1{fill:url(#XMLID_2_);}
	.st2{fill:url(#XMLID_3_);}
	.st3{fill:#FF80D5;stroke:#FF80D5;stroke-linecap:round;stroke-linejoin:round;}
	.st4{fill:none;stroke:#FFE6F3;stroke-width:4;stroke-linecap:round;stroke-linejoin:round;}
	.st5{opacity:0.5;fill:#C462B8;}
	.st6{fill:#FFCCE9;stroke:#FF80D5;stroke-width:3;}
	.st7{opacity:0.5;fill:#960000;}
	.st8{fill:none;stroke:#FF80D5;stroke-width:2;stroke-linecap:round;}
	.st9{fill:#C462B8;}
	.st10{fill:#960000;}
	.st11{fill:#2C781C;}
	.st12{fill:#FF80D5;}
	.st13{fill:#FFE6F3;}
	.st14{fill:#FFFFFF;}
	.st15{opacity:0.5;fill:none;stroke:#D5E000;stroke-width:2;}
	.st16{fill:none;stroke:#D5E000;stroke-width:2;}
]]>
</style>
</svg>
