<?xml version="1.0" encoding="UTF-8" standalone="no"?>
<svg
   xmlns:dc="http://purl.org/dc/elements/1.1/"
   xmlns:cc="http://creativecommons.org/ns#"
   xmlns:rdf="http://www.w3.org/1999/02/22-rdf-syntax-ns#"
   xmlns:svg="http://www.w3.org/2000/svg"
   xmlns="http://www.w3.org/2000/svg"
   width="40.258545mm"
   height="37.074799mm"
   viewBox="0 0 40.258545 37.074799"
   version="1.1"
   id="svg3514">
  <defs
     id="defs3508" />
  <metadata
     id="metadata3511">
    <rdf:RDF>
      <cc:Work
         rdf:about="">
        <dc:format>image/svg+xml</dc:format>
        <dc:type
           rdf:resource="http://purl.org/dc/dcmitype/StillImage" />
        <dc:title></dc:title>
      </cc:Work>
    </rdf:RDF>
  </metadata>
  <g
     id="layer1"
     transform="translate(-85.70406,-129.62927)">
    <path
       style="fill:#d31e13;fill-opacity:1;stroke-width:0.264583"
       d="m 85.84741,132.5037 c -0.0558,0.45746 0.14473,1.04907 0.65829,1.36022 v 0 c 0.52916,0.32068 1.3245,-0.086 1.67746,-0.84137 v 0 c 0.1598,-0.34264 0.003,-0.73475 -0.38047,-0.8255 v 0 c -0.0294,-0.007 -0.0238,-0.0257 -0.0397,-0.0275 v 0 c -0.48684,-0.0534 -0.34052,-0.1479 -0.65934,-0.3638 v 0 c -0.13177,-0.0894 -0.26829,-0.17648 -0.44503,-0.1831 v 0 c -0.009,0 -0.0175,-5.2e-4 -0.027,-5.2e-4 v 0 c -0.43709,0 -0.72787,0.41539 -0.78423,0.88159"
       id="path3292" />
    <g
       id="g3296"
       transform="matrix(0.26458333,0,0,0.26458333,-170.07505,127.12763)">
      <path
         class="st11"
         d="m 979.492,9.457 c -1.988,0.464 -3.5,1.495 -4.699,3.152 v 0 c -2.324,3.211 -1.975,6.079 -2.096,6.108 v 0 c -0.053,0.012 -0.111,0 -0.17,-0.012 v 0 c -0.125,-0.025 -0.244,-0.05 -0.266,0.143 v 0 c -0.043,0.414 0.863,0.785 1.195,0.343 v 0 c 0.117,-0.156 -0.307,-0.131 -0.281,-0.465 v 0 c 0.201,-2.556 0.338,-3.283 1.936,-5.42 v 0 c 0.959,-1.286 2.059,-2.203 3.613,-2.452 v 0 c 0.189,-0.03 0.213,0.039 0.221,0.109 v 0 c 0.006,0.078 -0.012,0.155 0.162,0.094 v 0 c 0.553,-0.193 0.609,-1.602 0.396,-1.602 v 0 c -0.003,0 -0.007,0 -0.011,0.002"
         id="path3294" />
    </g>
    <polygon
       style="fill:url(#XMLID_5_)"
       points="967.689,40.578 967.225,40.111 974.947,32.396 975.412,32.861 "
       id="polygon3303"
       transform="matrix(0.26458333,0,0,0.26458333,-170.07505,127.12763)" />
    <path
       style="fill:#ffcce9;fill-opacity:1;stroke-width:0.264583"
       d="m 87.13197,136.555 c 0,0 -0.52811,-1.47188 0.16695,-2.16614 0.69453,-0.69427 1.11892,-0.26988 1.30492,-0.0836 0.18601,0.18626 0.0802,0.69929 -0.3048,1.08426 0.39688,-0.39635 0.86546,-0.52282 1.0848,-0.30427 0.21801,0.21881 0.59531,0.62547 -0.0847,1.30492 -0.68051,0.67892 -2.1672,0.16484 -2.1672,0.16484 z"
       id="path3310" />
    <path
       class="st12"
       d="m 88.77371,141.30242 c 0,0 -1.80658,-0.85275 -1.80605,-2.10767 5.3e-4,-1.25492 0.76676,-1.25439 1.10331,-1.25439 0.33602,2.6e-4 0.70379,0.55986 0.70327,1.25545 10e-4,-0.71676 0.31062,-1.25492 0.70537,-1.25466 0.3937,0 1.10279,0.027 1.10226,1.25492 -10e-4,1.22767 -1.80816,2.10635 -1.80816,2.10635 z"
       id="path3312"
       style="fill:#ff80d6;fill-opacity:1;stroke-width:0.264583" />
    <line
       class="st8"
       x1="86.100632"
       y1="140.07555"
       x2="92.070679"
       y2="138.8963"
       id="line3314"
       style="fill:none;fill-opacity:1;stroke:#ff80d6;stroke-width:0.529167;stroke-miterlimit:4;stroke-dasharray:none;stroke-opacity:1" />
    <polygon
       class="st3"
       points="988.619,48.986 987.068,41.138 991.768,44.287 "
       id="polygon3316"
       transform="matrix(0.26458333,0,0,0.26458333,-170.07505,127.12763)"
       style="fill:#ff80d6;fill-opacity:1;stroke:#ff80d6;stroke-opacity:1" />
    <path
       class="st12"
       d="m 87.65505,144.6912 c 0,0 -1.80711,-0.85275 -1.80605,-2.10767 0,-1.25492 0.76676,-1.25439 1.10279,-1.25439 0.33628,2.7e-4 0.70379,0.5596 0.70379,1.25519 5.3e-4,-0.71676 0.31009,-1.25466 0.70485,-1.25466 0.39476,2.7e-4 1.10278,0.027 1.10225,1.25518 -5.3e-4,1.2282 -1.80763,2.10635 -1.80763,2.10635 z"
       id="path3318"
       style="fill:#ffcce9;fill-opacity:1;stroke-width:0.264583" />
    <path
       class="st12"
       d="m 88.62448,152.11726 c 0,0 -2.62969,-0.99245 -2.77098,-2.75272 -0.14155,-1.76054 0.93424,-1.84627 1.40573,-1.8841 0.47122,-0.0373 1.05066,0.70564 1.12871,1.68143 -0.0802,-1.00568 0.29343,-1.7952 0.84746,-1.83992 0.55351,-0.0437 1.54967,-0.0868 1.68778,1.63672 0.13732,1.72244 -2.2987,3.15859 -2.2987,3.15859 z"
       id="path3320"
       style="fill:#ffcce9;fill-opacity:1;stroke-width:0.264583" />
    <path
       class="st12"
       d="m 91.32799,147.54579 c 0,0 -1.12712,-1.1422 -0.77919,-2.08862 0.34686,-0.94615 0.92498,-0.73395 1.17819,-0.64108 0.25373,0.0931 0.37623,0.61621 0.18335,1.14061 0.19897,-0.54027 0.58076,-0.86042 0.87842,-0.75141 0.29765,0.10901 0.82418,0.32517 0.48471,1.25121 -0.33919,0.92604 -1.94548,1.08929 -1.94548,1.08929 z"
       id="path3322"
       style="fill:#ffcce9;fill-opacity:1;stroke-width:0.264583" />
    <path
       class="st6"
       d="m 94.72286,159.73568 v 2.88713 c 0,0 0.0619,0.58976 -0.58975,1.36578 -0.65167,0.77629 -2.76252,0.68315 -2.76252,0.68315 0,0 -2.11111,0.0931 -2.76251,-0.68315 -0.6522,-0.77602 -0.58976,-1.36578 -0.58976,-1.36578 v -2.88713 c 0,0 -2.29764,0.12409 -1.58274,-2.48365 0.71306,-2.60747 4.22143,-4.62544 4.93501,-4.62544 0.71411,0 4.22196,2.01797 4.93607,4.62544 0.71358,2.60721 -1.5838,2.48365 -1.5838,2.48365 z"
       id="path3324"
       style="fill:#ffe6f3;fill-opacity:1;stroke:#ffcce9;stroke-width:0.529167;stroke-miterlimit:4;stroke-dasharray:none;stroke-opacity:1" />
    <ellipse
       transform="rotate(129.09469)"
       class="st14"
       cx="65.545998"
       cy="-168.85262"
       rx="1.7621139"
       ry="1.070233"
       id="ellipse3326"
       style="stroke-width:0.264582" />
    <g
       id="g3340"
       transform="matrix(0.26458333,0,0,0.26458333,-170.07505,127.12763)">
      <path
         class="st4"
         d="m 1012.725,50.761 v 1.194 c 0,4.665 9.564,8.451 21.363,8.451 11.805,0 21.369,-3.786 21.369,-8.451 v -1.194"
         id="path3328" />
      <path
         class="st4"
         d="m 1054.236,47.111 c -0.268,0.541 -1.043,0.614 -1.639,1.102 -0.42,0.348 -0.711,1.257 -1.361,1.564 -1.223,0.587 -2.766,0.482 -4.268,0.924 -1.324,0.389 -2.639,1.371 -4.139,1.635 -1.363,0.246 -2.855,-0.225 -4.348,-0.096 -1.396,0.111 -2.82,0.836 -4.295,0.836 -1.543,0 -3.029,-0.729 -4.484,-0.848 -1.557,-0.141 -3.109,0.306 -4.533,0.045 -1.563,-0.291 -2.939,-1.304 -4.305,-1.732 -1.578,-0.502 -3.178,-0.46 -4.428,-1.122 -0.592,-0.303 -0.797,-1.206 -1.16,-1.548 -0.521,-0.484 -1.248,-0.605 -1.436,-1.144 -0.225,-0.622 -1.318,-2.813 -1.318,-3.494"
         id="path3330" />
      <path
         class="st4"
         d="m 1084.867,40.401 c -4.234,5.496 -13.785,2.147 -23.166,-5.081 -9.389,-7.234 -15.287,-15.317 -10.824,-21.107 3.281,-4.26 13.549,-1.859 22.932,5.372 9.386,7.244 14.334,16.556 11.058,20.816 z"
         id="path3332" />
      <path
         class="st4"
         d="m 1042.133,25.553 -0.727,0.942 c -2.854,3.701 2.416,12.533 11.766,19.74 9.348,7.194 19.234,10.035 22.09,6.336 l 0.723,-0.941"
         id="path3334" />
      <path
         class="st4"
         d="m 1080.225,45.394 c -0.602,0.381 -2.322,2.271 -2.979,2.597 -0.539,0.269 -1.199,-0.151 -1.975,-0.124 -0.551,0.018 -1.33,0.564 -2.035,0.41 -1.324,-0.286 -2.479,-1.313 -3.938,-1.865 -1.291,-0.508 -2.928,-0.529 -4.279,-1.236 -1.229,-0.639 -2.125,-1.924 -3.379,-2.729 -1.18,-0.766 -2.744,-1.055 -3.92,-1.959 -1.219,-0.943 -1.953,-2.426 -3.031,-3.416 -1.148,-1.051 -2.65,-1.646 -3.615,-2.729 -1.072,-1.184 -1.537,-2.823 -2.361,-3.995 -0.947,-1.357 -2.234,-2.306 -2.826,-3.583 -0.281,-0.606 0.105,-1.441 0.027,-1.936 -0.117,-0.707 -0.621,-1.242 -0.443,-1.789 0.209,-0.631 0.68,-3.033 1.094,-3.574"
         id="path3336" />
      <path
         class="st4"
         d="m 1050.162,43.738 c -3.93,1.906 -9.631,2.814 -15.969,2.814 -11.85,0 -21.453,-2.803 -21.453,-10.11 0,-5.378 9.604,-9.741 21.453,-9.741 2.242,0 4.408,0.157 6.438,0.451"
         id="path3338" />
    </g>
    <path
       style="fill:none;stroke:#7d4000;stroke-width:0.265;stroke-linecap:round;stroke-linejoin:miter;stroke-miterlimit:4;stroke-dasharray:none;stroke-opacity:1"
       d="m 87.13194,136.555 -1.29538,1.18533"
       id="path4167" />
    <g
       id="g4223"
       transform="translate(-131.98769,47.539009)">
      <path
         style="fill:#ffe6f3;fill-opacity:1;stroke:#ffcce9;stroke-width:0.264583px;stroke-linecap:butt;stroke-linejoin:miter;stroke-opacity:1"
         d="m 239.51088,100.90057 -3.98142,-3.242014 c 0,0 -3.35161,-2.464744 -5.13371,1.099455 0,0 -0.55907,0.830499 -0.62236,1.811359 -0.0633,0.98085 0,4.0658 0,4.0658 0,0 -0.18984,3.21151 3.21152,2.30976 l 6.51794,-2.45214 z"
         id="path4205" />
      <path
         id="path4207"
         style="fill:#ffcce9;fill-opacity:1;fill-rule:evenodd;stroke:none;stroke-width:0.264999;stroke-linecap:round;stroke-linejoin:round;stroke-miterlimit:4;stroke-dasharray:none;stroke-opacity:1"
         d="m 239.50384,102.88406 c -0.7576,0.26625 -3.61127,0.9601 -4.16172,0.9601 -1.1009,0 -1.99335,-0.65871 -1.99335,-1.47128 0,-0.81257 0.89245,-1.47128 1.99335,-1.47128 0.55045,0 3.40412,0.69385 4.16172,0.9601 z" />
      <path
         style="fill:#ffe6f3;fill-opacity:1;stroke:#ffcce9;stroke-width:0.264583px;stroke-linecap:butt;stroke-linejoin:miter;stroke-opacity:1"
         d="m 239.50285,104.49279 -6.51794,2.45214 c 0,0 -0.5379,0.14238 -1.23399,0.1582 0,0 -0.96503,2.1832 1.36055,2.2623 0,0 0.25312,-0.0158 0.96503,-0.41133 l 5.66366,-4.03416 z"
         id="path4218" />
    </g>
    <g
       id="g4231"
       transform="matrix(-1,0,0,1,350.76721,47.539009)">
      <path
         style="fill:#ffe6f3;fill-opacity:1;stroke:#ffcce9;stroke-width:0.264583px;stroke-linecap:butt;stroke-linejoin:miter;stroke-opacity:1"
         d="m 239.51088,100.90057 -3.98142,-3.242014 c 0,0 -3.35161,-2.464744 -5.13371,1.099455 0,0 -0.55907,0.830499 -0.62236,1.811359 -0.0633,0.98085 0,4.0658 0,4.0658 0,0 -0.18984,3.21151 3.21152,2.30976 l 6.51794,-2.45214 z"
         id="path4225" />
      <path
         id="path4227"
         style="fill:#ffcce9;fill-opacity:1;fill-rule:evenodd;stroke:none;stroke-width:0.264999;stroke-linecap:round;stroke-linejoin:round;stroke-miterlimit:4;stroke-dasharray:none;stroke-opacity:1"
         d="m 239.50384,102.88406 c -0.7576,0.26625 -3.61127,0.9601 -4.16172,0.9601 -1.1009,0 -1.99335,-0.65871 -1.99335,-1.47128 0,-0.81257 0.89245,-1.47128 1.99335,-1.47128 0.55045,0 3.40412,0.69385 4.16172,0.9601 z" />
      <path
         style="fill:#ffe6f3;fill-opacity:1;stroke:#ffcce9;stroke-width:0.264583px;stroke-linecap:butt;stroke-linejoin:miter;stroke-opacity:1"
         d="m 239.50285,104.49279 -6.51794,2.45214 c 0,0 -0.5379,0.14238 -1.23399,0.1582 0,0 -0.96503,2.1832 1.36055,2.2623 0,0 0.25312,-0.0158 0.96503,-0.41133 l 5.66366,-4.03416 z"
         id="path4229" />
    </g>
    <path
       id="rect4233"
       style="fill:#ffe6f3;fill-opacity:1;fill-rule:evenodd;stroke:#ffcce9;stroke-width:0.264583;stroke-linecap:round;stroke-linejoin:round;stroke-miterlimit:4;stroke-dasharray:none;stroke-opacity:1"
       d="m 107.62834,148.03791 h 3.40426 c 0.15209,0 0.27454,0.12244 0.27454,0.27454 v 4.11806 c 0,0.15209 -0.12245,0.27453 -0.27454,0.27453 h -3.40426 c -0.15209,0 -0.27454,-0.12244 -0.27454,-0.27453 v -4.11806 c 0,-0.1521 0.12245,-0.27454 0.27454,-0.27454 z" />
    <path
       id="path4236"
       style="display:inline;fill:#ffe6f3;fill-opacity:1;fill-rule:evenodd;stroke:#ffcce9;stroke-width:0.529167;stroke-linecap:round;stroke-linejoin:round;stroke-miterlimit:4;stroke-dasharray:none;stroke-opacity:1"
       d="m 106.41699,163.35471 -2.85633,0.34294 -1.27463,2.74187 -1.20881,-2.61055 -3.00156,-0.36496 2.10925,-1.95636 -0.58044,-2.96743 2.5124,1.40147 2.64282,-1.46902 -0.5565,2.82251 z" />
    <path
       id="path4253"
       style="display:inline;fill:#ffe6f3;fill-opacity:1;fill-rule:evenodd;stroke:#ffcce9;stroke-width:0.529167;stroke-linecap:round;stroke-linejoin:round;stroke-miterlimit:4;stroke-dasharray:none;stroke-opacity:1"
       d="m 116.34928,161.92693 a 4.04881,4.04881 0 0 1 -4.04881,4.04881 4.04881,4.04881 0 0 1 -4.04881,-4.04881 4.04881,4.04881 0 0 1 4.04881,-4.04881 4.04881,4.04881 0 0 1 4.04881,4.04881 z" />
    <path
       id="rect4272"
       style="display:inline;fill:#ffe6f3;fill-opacity:1;fill-rule:evenodd;stroke:#ffcce9;stroke-width:0.529167;stroke-linecap:round;stroke-linejoin:round;stroke-miterlimit:4;stroke-dasharray:none;stroke-opacity:1"
       d="m 119.31807,158.3382 h 5.58245 c 0.44181,0 0.7975,0.35568 0.7975,0.79749 v 5.58245 c 0,0.44181 -0.35569,0.79749 -0.7975,0.79749 h -5.58245 c -0.44181,0 -0.79749,-0.35568 -0.79749,-0.79749 v -5.58245 c 0,-0.44181 0.35568,-0.79749 0.79749,-0.79749 z" />
  </g>
  <style
     type="text/css"
     id="style3285"><![CDATA[
	.st0{fill:url(#XMLID_1_);}
	.st1{fill:url(#XMLID_2_);}
	.st2{fill:url(#XMLID_3_);}
	.st3{fill:#FF80D5;stroke:#FF80D5;stroke-linecap:round;stroke-linejoin:round;}
	.st4{fill:none;stroke:#FFE6F3;stroke-width:4;stroke-linecap:round;stroke-linejoin:round;}
	.st5{opacity:0.5;fill:#C462B8;}
	.st6{fill:#FFCCE9;stroke:#FF80D5;stroke-width:3;}
	.st7{opacity:0.5;fill:#960000;}
	.st8{fill:none;stroke:#FF80D5;stroke-width:2;stroke-linecap:round;}
	.st9{fill:#C462B8;}
	.st10{fill:#960000;}
	.st11{fill:#2C781C;}
	.st12{fill:#FF80D5;}
	.st13{fill:#FFE6F3;}
	.st14{fill:#FFFFFF;}
	.st15{opacity:0.5;fill:none;stroke:#D5E000;stroke-width:2;}
	.st16{fill:none;stroke:#D5E000;stroke-width:2;}
]]></style>
</svg>
