<?xml version="1.0" encoding="UTF-8" standalone="no"?>
<svg
   xmlns:dc="http://purl.org/dc/elements/1.1/"
   xmlns:cc="http://creativecommons.org/ns#"
   xmlns:rdf="http://www.w3.org/1999/02/22-rdf-syntax-ns#"
   xmlns:svg="http://www.w3.org/2000/svg"
   xmlns="http://www.w3.org/2000/svg"
   xmlns:sodipodi="http://sodipodi.sourceforge.net/DTD/sodipodi-0.dtd"
   xmlns:inkscape="http://www.inkscape.org/namespaces/inkscape"
   width="12.173511mm"
   height="40.04668mm"
   viewBox="0 0 12.173511 40.04668"
   version="1.1"
   id="svg8"
   inkscape:version="1.0.1 (c497b03c, 2020-09-10)"
   sodipodi:docname="repeat-x.svg">
  <defs
     id="defs2">
    <filter
       style="color-interpolation-filters:sRGB"
       id="filter1073">
      <feGaussianBlur
         stdDeviation="0.31 0.31"
         result="blur"
         id="feGaussianBlur1071" />
    </filter>
  </defs>
  <sodipodi:namedview
     id="base"
     pagecolor="#ffffff"
     bordercolor="#666666"
     borderopacity="1.0"
     inkscape:pageopacity="0.0"
     inkscape:pageshadow="2"
     inkscape:zoom="2.1710604"
     inkscape:cx="58.946146"
     inkscape:cy="31.190232"
     inkscape:document-units="mm"
     inkscape:current-layer="layer1"
     inkscape:document-rotation="0"
     showgrid="false"
     fit-margin-top="0"
     fit-margin-left="0"
     fit-margin-right="0"
     fit-margin-bottom="0"
     inkscape:window-width="1440"
     inkscape:window-height="847"
     inkscape:window-x="0"
     inkscape:window-y="25"
     inkscape:window-maximized="0" />
  <metadata
     id="metadata5">
    <rdf:RDF>
      <cc:Work
         rdf:about="">
        <dc:format>image/svg+xml</dc:format>
        <dc:type
           rdf:resource="http://purl.org/dc/dcmitype/StillImage" />
        <dc:title></dc:title>
      </cc:Work>
    </rdf:RDF>
  </metadata>
  <g
     inkscape:label="レイヤー 1"
     inkscape:groupmode="layer"
     id="layer1"
     transform="translate(-104.56358,-132.64989)">
    <path
       style="fill:#ffe6f3;fill-opacity:1;stroke:none;stroke-width:0.264583;stroke-opacity:1"
       d="m 116.18622,132.64993 v 0.25824 h -1.33905 v -0.25824 h -1.03981 v 0.25824 h -1.31763 v -0.25824 h -1.07897 v 0.25824 h -1.55893 v -0.25824 h -1.05939 v 0.25824 h -1.33852 v -0.25824 h -1.03849 v 0.25824 h -1.33906 v -0.25824 h -0.51276 c 0,0 0,2.45613 0,2.93555 0,0.47969 1.19221,0.57944 1.19221,0.57944 0,0 -0.66701,0.77867 -0.26802,1.37875 0.39978,0.59954 1.30651,0.17991 1.30651,0.17991 0,0 -0.27966,0.91943 0.18045,1.37875 0.45878,0.45931 1.59887,-0.20003 1.59887,-0.20003 0,0 0.0998,1.05913 0.67839,1.31868 0.57918,0.25903 1.41844,-0.61965 1.41844,-0.61965 0,0 0.79533,0.82074 1.515,0.52361 0.64479,-0.26538 0.60325,-1.10331 0.60325,-1.10331 0,0 1.09908,0.57891 1.62825,0.0497 0.52969,-0.5297 0.11006,-1.4687 0.11006,-1.4687 0,0 1.2909,0.39608 1.57771,-0.24818 0.35931,-0.81042 -0.43868,-1.44965 -0.43868,-1.44965 0.63924,0.13996 1.06813,-0.43974 1.06813,-0.43974 v -1.52294 c 0,0.29792 -0.23601,0.53948 -0.52361,0.53948 -0.29025,0 -0.52361,-0.24156 -0.52361,-0.53948 0,-0.29792 0.23468,-0.53949 0.52361,-0.53949 0.28971,0 0.52361,0.24157 0.52361,0.53949 v -1.29223 z m -11.0691,1.83171 c -0.29025,0 -0.52414,-0.24156 -0.52414,-0.53948 0,-0.29792 0.23521,-0.53949 0.52414,-0.53949 0.28892,0 0.52361,0.24157 0.52361,0.53949 0,0.29792 -0.23469,0.53948 -0.52361,0.53948 z m 1.16654,0.40376 c 0.15452,0 0.2802,0.12541 0.2802,0.27993 0,0.15451 -0.12568,0.28019 -0.2802,0.28019 -0.15451,0 -0.28019,-0.12568 -0.28019,-0.28019 0,-0.15452 0.12568,-0.27993 0.28019,-0.27993 z m -0.29104,2.17884 v -0.8292 l 0.74877,0.86915 z m 1.36234,1.47743 v -0.8292 l 0.7493,0.86889 z m -0.0442,-1.54754 c -0.68898,-0.68898 1.90844,-1.90791 1.90844,-1.90791 0,0 -1.21894,2.59741 -1.90844,1.90791 z m 1.64253,1.02922 c -0.15452,0 -0.28019,-0.12541 -0.28019,-0.27992 0,-0.15452 0.12567,-0.2802 0.28019,-0.2802 0.15452,0 0.28019,0.12568 0.28019,0.2802 0,0.15451 -0.12567,0.27992 -0.28019,0.27992 z m 0.31988,1.57851 -0.15981,-0.61966 0.75909,0.39979 z m 1.39832,-1.03902 c -0.9988,0 0,-2.51777 0,-2.51777 0,0 0.99854,2.51777 0,2.51777 z m -0.0405,-3.0136 c 0,0 -0.68447,-0.32306 -0.68447,-0.79931 0,-0.47572 0.29077,-0.47572 0.41804,-0.47572 0.12673,0 0.2667,0.21219 0.2667,0.47572 0,-0.2712 0.11774,-0.47572 0.26776,-0.47572 0.14922,0 0.41804,0.01 0.41804,0.47572 -0.001,0.46593 -0.68607,0.79931 -0.68607,0.79931 z m 1.43934,4.05262 -0.60034,-0.21987 0.75909,-0.39979 z m 0.25902,-1.57851 c -0.15451,0 -0.27993,-0.12541 -0.27993,-0.27992 0,-0.15452 0.12542,-0.2802 0.27993,-0.2802 0.15452,0 0.28099,0.12568 0.28099,0.2802 0,0.15451 -0.12647,0.27992 -0.28099,0.27992 z m 1.66503,0.51832 -0.7493,0.0397 0.7493,-0.86889 z m -0.036,-1.54754 c -0.68897,0.68924 -1.90844,-1.90791 -1.90844,-1.90791 0,0 2.59715,1.21893 1.90844,1.90791 z m 0.95727,-2.10873 c 0.15451,0 0.27992,0.12541 0.27992,0.27993 0,0.15451 -0.12541,0.28019 -0.27992,0.28019 -0.15452,0 -0.28099,-0.12568 -0.28099,-0.28019 0,-0.15452 0.12647,-0.27993 0.28099,-0.27993 z m 0.44132,2.17884 -0.74877,0.0399 0.74877,-0.86915 z"
       id="path833" />
    <path
       style="fill:#ffe6f3;fill-opacity:1;stroke:none;stroke-width:0.264583;stroke-opacity:1"
       d="m 116.73523,159.20427 v -1.29222 c 0,0.29765 -0.23468,0.53869 -0.52361,0.53869 -0.28998,0 -0.52361,-0.24104 -0.52361,-0.53869 0,-0.29819 0.23522,-0.53949 0.52361,-0.53949 0.28999,0 0.52361,0.2413 0.52361,0.53949 v -1.52374 c 0,0 -0.42862,-0.57917 -1.06785,-0.43947 0,0 0.7993,-0.63924 0.43841,-1.44939 -0.28681,-0.64505 -1.57771,-0.2495 -1.57771,-0.2495 0,0 0.41963,-0.93901 -0.11007,-1.4687 -0.52916,-0.52917 -1.62798,0.0497 -1.62798,0.0497 0,0 0.0394,-0.83741 -0.60351,-1.10332 -0.7194,-0.29633 -1.51501,0.52388 -1.51501,0.52388 0,0 -0.83873,-0.87895 -1.41843,-0.61965 -0.57917,0.25929 -0.67892,1.31815 -0.67892,1.31815 0,0 -1.13956,-0.65908 -1.59835,-0.20029 -0.45878,0.45985 -0.17991,1.37901 -0.17991,1.37901 0,0 -0.90699,-0.4199 -1.30652,0.18018 -0.39952,0.60007 0.26776,1.37927 0.26776,1.37927 0,0 -1.19221,0.10028 -1.19221,0.57891 0,0.47996 0,2.93555 0,2.93555 h 0.51276 v -0.2577 h 1.33932 v 0.2585 h 1.03876 v -0.2585 h 1.33932 v 0.2585 h 1.05939 v -0.2585 h 1.55893 v 0.2585 h 1.07897 v -0.2585 h 1.31789 v 0.2585 h 1.03954 v -0.2585 h 1.33906 v 0.2585 h 0.54822 v 5.3e-4 z m -11.0945,-1.29196 c 0,0.29766 -0.23522,0.53869 -0.52361,0.53869 -0.29025,0 -0.52361,-0.24103 -0.52361,-0.53869 0,-0.29819 0.23495,-0.53949 0.52361,-0.53949 0.28866,0 0.52361,0.2413 0.52361,0.53949 z m 0.36274,-1.22317 c 0,-0.15452 0.12594,-0.28046 0.28046,-0.28046 0.15452,0 0.28019,0.12594 0.28019,0.28046 0,0.15452 -0.12567,0.28046 -0.28019,0.28046 -0.15452,0 -0.28046,-0.12594 -0.28046,-0.28046 z m 0.73792,-1.93887 -0.74877,0.8689 v -0.82974 z m 1.36287,-1.47716 -0.7493,0.86889 v -0.82974 z m 1.11496,3.49488 c 0,0 -2.59742,-1.21814 -1.90844,-1.90791 0.6895,-0.68951 1.90844,1.90791 1.90844,1.90791 z m 0.0135,-2.65695 c 0,0.15452 -0.12541,0.2802 -0.27993,0.2802 -0.15452,0 -0.28046,-0.12568 -0.28046,-0.2802 0,-0.15452 0.12594,-0.28072 0.28046,-0.28072 0.15452,0 0.27993,0.1262 0.27993,0.28072 z m 0.63923,-1.63856 -0.75909,0.39952 0.15981,-0.61913 z m 0.79957,3.33639 c 0,0 -0.9988,-2.5183 0,-2.5183 0.99854,5.3e-4 0,2.5183 0,2.5183 z m 0.64453,1.29487 c 0,0.46593 -0.26882,0.47546 -0.41831,0.47546 -0.14896,0 -0.26723,-0.2032 -0.26723,-0.47546 0,0.26353 -0.13943,0.47546 -0.26696,0.47546 -0.12753,0 -0.41804,0 -0.41804,-0.47546 0,-0.47598 0.685,-0.7993 0.685,-0.7993 0,0 0.68554,0.33443 0.68554,0.7993 z m 0.91387,-4.23227 -0.75909,-0.39926 0.6006,-0.2196 z m 0.37994,1.23957 c 0,0.15452 -0.12647,0.2802 -0.28099,0.2802 -0.15451,0 -0.27993,-0.12568 -0.27993,-0.2802 0,-0.15452 0.12542,-0.28072 0.27993,-0.28072 0.15452,0 0.28099,0.1262 0.28099,0.28072 z m 1.38457,0.031 -0.7493,-0.86889 0.7493,0.0392 z m -1.94416,2.62599 c 0,0 1.21814,-2.59715 1.9087,-1.90791 0.68818,0.68924 -1.9087,1.90791 -1.9087,1.90791 z m 2.58498,-0.0788 c 0,-0.15452 0.1262,-0.28046 0.28072,-0.28046 0.15452,0 0.27966,0.12594 0.27966,0.28046 0,0.15452 -0.12514,0.28046 -0.27966,0.28046 -0.15452,0 -0.28072,-0.12594 -0.28072,-0.28046 z m 0.72178,-1.06971 -0.74877,-0.86889 0.74877,0.0392 z"
       id="path835" />
    <g
       id="g869"
       style="stroke:none;stroke-opacity:1"
       transform="matrix(0.26458333,0,0,0.26458333,104.69484,154.19717)">
      <g
         id="g843"
         style="stroke:none;stroke-opacity:1">
        <g
           id="g841"
           style="stroke:none;stroke-opacity:1">
          <g
             id="g839"
             style="stroke:none;stroke-opacity:1">
            <path
               style="fill:#6bbed5;stroke:none;stroke-opacity:1"
               d="m 2.098,61.269 c 0,0 -2.594,-1.224 -2.594,-3.022 0,-1.804 1.103,-1.804 1.584,-1.804 0.481,0 1.01,0.806 1.01,1.806 0.002,-1.029 0.445,-1.806 1.015,-1.806 0.565,0 1.582,0.039 1.582,1.806 -0.003,1.759 -2.597,3.02 -2.597,3.02 z"
               id="path837" />
          </g>
        </g>
      </g>
      <g
         id="g851"
         style="stroke:none;stroke-opacity:1">
        <g
           id="g849"
           style="stroke:none;stroke-opacity:1">
          <g
             id="g847"
             style="stroke:none;stroke-opacity:1">
            <path
               style="fill:#6bbed5;stroke:none;stroke-opacity:1"
               d="m 11.596,61.269 c 0,0 -2.597,-1.224 -2.594,-3.022 0,-1.804 1.102,-1.804 1.584,-1.804 0.481,0 1.01,0.806 1.01,1.806 0,-1.029 0.444,-1.806 1.013,-1.806 0.566,0 1.582,0.039 1.582,1.806 0,1.759 -2.595,3.02 -2.595,3.02 z"
               id="path845" />
          </g>
        </g>
      </g>
      <g
         id="g859"
         style="stroke:none;stroke-opacity:1">
        <g
           id="g857"
           style="stroke:none;stroke-opacity:1">
          <g
             id="g855"
             style="stroke:none;stroke-opacity:1">
            <path
               style="fill:#6bbed5;stroke:none;stroke-opacity:1"
               d="m 21.095,61.269 c 0,0 -2.596,-1.224 -2.596,-3.022 0.002,-1.804 1.104,-1.804 1.586,-1.804 0.479,0 1.01,0.806 1.01,1.806 0.002,-1.029 0.445,-1.806 1.015,-1.806 0.565,0 1.583,0.039 1.582,1.806 -0.004,1.761 -2.597,3.02 -2.597,3.02 z"
               id="path853" />
          </g>
        </g>
      </g>
      <g
         id="g867"
         style="stroke:none;stroke-opacity:1">
        <g
           id="g865"
           style="stroke:none;stroke-opacity:1">
          <g
             id="g863"
             style="stroke:none;stroke-opacity:1">
            <path
               style="fill:#6bbed5;stroke:none;stroke-opacity:1"
               d="m 32.415,60.896 c 0,0 -4.149,-1.959 -4.147,-4.843 0,-2.883 1.762,-2.881 2.532,-2.881 0.77,0 1.617,1.285 1.615,2.883 0.002,-1.645 0.713,-2.883 1.616,-2.881 0.906,0 2.533,0.062 2.531,2.881 0.001,2.821 -4.147,4.841 -4.147,4.841 z"
               id="path861" />
          </g>
        </g>
      </g>
    </g>
    <g
       id="g880"
       transform="matrix(0.26458333,0,0,0.26458333,104.69484,154.19717)">
      <g
         style="opacity:0.75"
         id="g874">
        <path
           d="m 4.418,69.919 c 0,0 -4.396,-2.045 -4.414,-5.091 -0.016,-3.046 1.846,-3.056 2.662,-3.06 0.816,-0.005 1.716,1.349 1.725,3.037 -0.008,-1.74 0.734,-3.051 1.693,-3.057 0.959,-0.004 2.678,0.051 2.693,3.032 0.015,2.981 -4.359,5.139 -4.359,5.139 z"
           id="path872" />
      </g>
      <g
         id="g878">
        <path
           style="fill:#ffe6f3"
           d="m 3.918,69.419 c 0,0 -4.396,-2.045 -4.414,-5.091 -0.016,-3.046 1.846,-3.056 2.662,-3.06 0.816,-0.005 1.716,1.349 1.725,3.037 -0.008,-1.74 0.734,-3.051 1.693,-3.057 0.959,-0.004 2.678,0.051 2.693,3.032 0.015,2.981 -4.359,5.139 -4.359,5.139 z"
           id="path876" />
      </g>
    </g>
    <path
       style="fill:#ffb3de;fill-opacity:1;stroke:none;stroke-width:0.264583;stroke-opacity:1;filter:url(#filter1073)"
       d="m 111.37066,141.8564 v 0.25824 h -1.33905 v -0.25824 h -1.03981 v 0.25824 h -1.31763 v -0.25824 h -1.07897 v 0.25824 h -1.55893 v -0.25824 h -1.05939 v 0.25824 h -1.33852 v -0.25824 h -1.03849 v 0.25824 h -1.33906 v -0.25824 h -0.512764 c 0,0 0,2.45613 0,2.93555 0,0.47969 1.192214,0.57944 1.192214,0.57944 0,0 -0.66701,0.77867 -0.26802,1.37875 0.39978,0.59954 1.30651,0.17991 1.30651,0.17991 0,0 -0.27966,0.91943 0.18045,1.37875 0.45878,0.45931 1.59887,-0.20003 1.59887,-0.20003 0,0 0.0998,1.05913 0.67839,1.31868 0.57918,0.25903 1.41844,-0.61965 1.41844,-0.61965 0,0 0.79533,0.82074 1.515,0.52361 0.64479,-0.26538 0.60325,-1.10331 0.60325,-1.10331 0,0 1.09908,0.57891 1.62825,0.0497 0.52969,-0.5297 0.11006,-1.4687 0.11006,-1.4687 0,0 1.2909,0.39608 1.57771,-0.24818 0.35931,-0.81042 -0.43868,-1.44965 -0.43868,-1.44965 0.63924,0.13996 1.06813,-0.43974 1.06813,-0.43974 v -1.52294 c 0,0.29792 -0.23601,0.53948 -0.52361,0.53948 -0.29025,0 -0.52361,-0.24156 -0.52361,-0.53948 0,-0.29792 0.23468,-0.53949 0.52361,-0.53949 0.28971,0 0.52361,0.24157 0.52361,0.53949 v -1.29223 z m -11.0691,1.83171 c -0.29025,0 -0.524146,-0.24156 -0.524146,-0.53948 0,-0.29792 0.235216,-0.53949 0.524146,-0.53949 0.28892,0 0.52361,0.24157 0.52361,0.53949 0,0.29792 -0.23469,0.53948 -0.52361,0.53948 z m 1.16654,0.40376 c 0.15452,0 0.2802,0.12541 0.2802,0.27993 0,0.15451 -0.12568,0.28019 -0.2802,0.28019 -0.15451,0 -0.28019,-0.12568 -0.28019,-0.28019 0,-0.15452 0.12568,-0.27993 0.28019,-0.27993 z m -0.29104,2.17884 v -0.8292 l 0.74877,0.86915 z m 1.36234,1.47743 v -0.8292 l 0.7493,0.86889 z m -0.0442,-1.54754 c -0.68898,-0.68898 1.90844,-1.90791 1.90844,-1.90791 0,0 -1.21894,2.59741 -1.90844,1.90791 z m 1.64253,1.02922 c -0.15452,0 -0.28019,-0.12541 -0.28019,-0.27992 0,-0.15452 0.12567,-0.2802 0.28019,-0.2802 0.15452,0 0.28019,0.12568 0.28019,0.2802 0,0.15451 -0.12567,0.27992 -0.28019,0.27992 z m 0.31988,1.57851 -0.15981,-0.61966 0.75909,0.39979 z m 1.39832,-1.03902 c -0.9988,0 0,-2.51777 0,-2.51777 0,0 0.99854,2.51777 0,2.51777 z m -0.0405,-3.0136 c 0,0 -0.68447,-0.32306 -0.68447,-0.79931 0,-0.47572 0.29077,-0.47572 0.41804,-0.47572 0.12673,0 0.2667,0.21219 0.2667,0.47572 0,-0.2712 0.11774,-0.47572 0.26776,-0.47572 0.14922,0 0.41804,0.01 0.41804,0.47572 -10e-4,0.46593 -0.68607,0.79931 -0.68607,0.79931 z m 1.43934,4.05262 -0.60034,-0.21987 0.75909,-0.39979 z m 0.25902,-1.57851 c -0.15451,0 -0.27993,-0.12541 -0.27993,-0.27992 0,-0.15452 0.12542,-0.2802 0.27993,-0.2802 0.15452,0 0.28099,0.12568 0.28099,0.2802 0,0.15451 -0.12647,0.27992 -0.28099,0.27992 z m 1.66503,0.51832 -0.7493,0.0397 0.7493,-0.86889 z m -0.036,-1.54754 c -0.68897,0.68924 -1.90844,-1.90791 -1.90844,-1.90791 0,0 2.59715,1.21893 1.90844,1.90791 z m 0.95727,-2.10873 c 0.15451,0 0.27992,0.12541 0.27992,0.27993 0,0.15451 -0.12541,0.28019 -0.27992,0.28019 -0.15452,0 -0.28099,-0.12568 -0.28099,-0.28019 0,-0.15452 0.12647,-0.27993 0.28099,-0.27993 z m 0.44132,2.17884 -0.74877,0.0399 0.74877,-0.86915 z"
       id="path957"
       transform="matrix(0.92799428,0,0,0.92799428,13.755677,11.217938)" />
    <path
       style="fill:#ffb3de;fill-opacity:1;stroke:none;stroke-width:0.264583;stroke-opacity:1;filter:url(#filter1073)"
       d="m 111.37066,141.8564 v 0.25824 h -1.33905 v -0.25824 h -1.03981 v 0.25824 h -1.31763 v -0.25824 h -1.07897 v 0.25824 h -1.55893 v -0.25824 h -1.05939 v 0.25824 h -1.33852 v -0.25824 h -1.03849 v 0.25824 h -1.33906 v -0.25824 h -0.512764 c 0,0 0,2.45613 0,2.93555 0,0.47969 1.192214,0.57944 1.192214,0.57944 0,0 -0.66701,0.77867 -0.26802,1.37875 0.39978,0.59954 1.30651,0.17991 1.30651,0.17991 0,0 -0.27966,0.91943 0.18045,1.37875 0.45878,0.45931 1.59887,-0.20003 1.59887,-0.20003 0,0 0.0998,1.05913 0.67839,1.31868 0.57918,0.25903 1.41844,-0.61965 1.41844,-0.61965 0,0 0.79533,0.82074 1.515,0.52361 0.64479,-0.26538 0.60325,-1.10331 0.60325,-1.10331 0,0 1.09908,0.57891 1.62825,0.0497 0.52969,-0.5297 0.11006,-1.4687 0.11006,-1.4687 0,0 1.2909,0.39608 1.57771,-0.24818 0.35931,-0.81042 -0.43868,-1.44965 -0.43868,-1.44965 0.63924,0.13996 1.06813,-0.43974 1.06813,-0.43974 v -1.52294 c 0,0.29792 -0.23601,0.53948 -0.52361,0.53948 -0.29025,0 -0.52361,-0.24156 -0.52361,-0.53948 0,-0.29792 0.23468,-0.53949 0.52361,-0.53949 0.28971,0 0.52361,0.24157 0.52361,0.53949 v -1.29223 z m -11.0691,1.83171 c -0.29025,0 -0.524146,-0.24156 -0.524146,-0.53948 0,-0.29792 0.235216,-0.53949 0.524146,-0.53949 0.28892,0 0.52361,0.24157 0.52361,0.53949 0,0.29792 -0.23469,0.53948 -0.52361,0.53948 z m 1.16654,0.40376 c 0.15452,0 0.2802,0.12541 0.2802,0.27993 0,0.15451 -0.12568,0.28019 -0.2802,0.28019 -0.15451,0 -0.28019,-0.12568 -0.28019,-0.28019 0,-0.15452 0.12568,-0.27993 0.28019,-0.27993 z m -0.29104,2.17884 v -0.8292 l 0.74877,0.86915 z m 1.36234,1.47743 v -0.8292 l 0.7493,0.86889 z m -0.0442,-1.54754 c -0.68898,-0.68898 1.90844,-1.90791 1.90844,-1.90791 0,0 -1.21894,2.59741 -1.90844,1.90791 z m 1.64253,1.02922 c -0.15452,0 -0.28019,-0.12541 -0.28019,-0.27992 0,-0.15452 0.12567,-0.2802 0.28019,-0.2802 0.15452,0 0.28019,0.12568 0.28019,0.2802 0,0.15451 -0.12567,0.27992 -0.28019,0.27992 z m 0.31988,1.57851 -0.15981,-0.61966 0.75909,0.39979 z m 1.39832,-1.03902 c -0.9988,0 0,-2.51777 0,-2.51777 0,0 0.99854,2.51777 0,2.51777 z m -0.0405,-3.0136 c 0,0 -0.68447,-0.32306 -0.68447,-0.79931 0,-0.47572 0.29077,-0.47572 0.41804,-0.47572 0.12673,0 0.2667,0.21219 0.2667,0.47572 0,-0.2712 0.11774,-0.47572 0.26776,-0.47572 0.14922,0 0.41804,0.01 0.41804,0.47572 -10e-4,0.46593 -0.68607,0.79931 -0.68607,0.79931 z m 1.43934,4.05262 -0.60034,-0.21987 0.75909,-0.39979 z m 0.25902,-1.57851 c -0.15451,0 -0.27993,-0.12541 -0.27993,-0.27992 0,-0.15452 0.12542,-0.2802 0.27993,-0.2802 0.15452,0 0.28099,0.12568 0.28099,0.2802 0,0.15451 -0.12647,0.27992 -0.28099,0.27992 z m 1.66503,0.51832 -0.7493,0.0397 0.7493,-0.86889 z m -0.036,-1.54754 c -0.68897,0.68924 -1.90844,-1.90791 -1.90844,-1.90791 0,0 2.59715,1.21893 1.90844,1.90791 z m 0.95727,-2.10873 c 0.15451,0 0.27992,0.12541 0.27992,0.27993 0,0.15451 -0.12541,0.28019 -0.27992,0.28019 -0.15452,0 -0.28099,-0.12568 -0.28099,-0.28019 0,-0.15452 0.12647,-0.27993 0.28099,-0.27993 z m 0.44132,2.17884 -0.74877,0.0399 0.74877,-0.86915 z"
       id="path894"
       transform="matrix(0.92799428,0,0,0.92799428,1.4855339,11.217938)" />
    <path
       style="fill:#ffb3de;fill-opacity:1;stroke:none;stroke-width:0.264583;stroke-opacity:1;filter:url(#filter1073)"
       d="m 111.37066,141.8564 v 0.25824 h -1.33905 v -0.25824 h -1.03981 v 0.25824 h -1.31763 v -0.25824 h -1.07897 v 0.25824 h -1.55893 v -0.25824 h -1.05939 v 0.25824 h -1.33852 v -0.25824 h -1.03849 v 0.25824 h -1.33906 v -0.25824 h -0.512764 c 0,0 0,2.45613 0,2.93555 0,0.47969 1.192214,0.57944 1.192214,0.57944 0,0 -0.66701,0.77867 -0.26802,1.37875 0.39978,0.59954 1.30651,0.17991 1.30651,0.17991 0,0 -0.27966,0.91943 0.18045,1.37875 0.45878,0.45931 1.59887,-0.20003 1.59887,-0.20003 0,0 0.0998,1.05913 0.67839,1.31868 0.57918,0.25903 1.41844,-0.61965 1.41844,-0.61965 0,0 0.79533,0.82074 1.515,0.52361 0.64479,-0.26538 0.60325,-1.10331 0.60325,-1.10331 0,0 1.09908,0.57891 1.62825,0.0497 0.52969,-0.5297 0.11006,-1.4687 0.11006,-1.4687 0,0 1.2909,0.39608 1.57771,-0.24818 0.35931,-0.81042 -0.43868,-1.44965 -0.43868,-1.44965 0.63924,0.13996 1.06813,-0.43974 1.06813,-0.43974 v -1.52294 c 0,0.29792 -0.23601,0.53948 -0.52361,0.53948 -0.29025,0 -0.52361,-0.24156 -0.52361,-0.53948 0,-0.29792 0.23468,-0.53949 0.52361,-0.53949 0.28971,0 0.52361,0.24157 0.52361,0.53949 v -1.29223 z m -11.0691,1.83171 c -0.29025,0 -0.524146,-0.24156 -0.524146,-0.53948 0,-0.29792 0.235216,-0.53949 0.524146,-0.53949 0.28892,0 0.52361,0.24157 0.52361,0.53949 0,0.29792 -0.23469,0.53948 -0.52361,0.53948 z m 1.16654,0.40376 c 0.15452,0 0.2802,0.12541 0.2802,0.27993 0,0.15451 -0.12568,0.28019 -0.2802,0.28019 -0.15451,0 -0.28019,-0.12568 -0.28019,-0.28019 0,-0.15452 0.12568,-0.27993 0.28019,-0.27993 z m -0.29104,2.17884 v -0.8292 l 0.74877,0.86915 z m 1.36234,1.47743 v -0.8292 l 0.7493,0.86889 z m -0.0442,-1.54754 c -0.68898,-0.68898 1.90844,-1.90791 1.90844,-1.90791 0,0 -1.21894,2.59741 -1.90844,1.90791 z m 1.64253,1.02922 c -0.15452,0 -0.28019,-0.12541 -0.28019,-0.27992 0,-0.15452 0.12567,-0.2802 0.28019,-0.2802 0.15452,0 0.28019,0.12568 0.28019,0.2802 0,0.15451 -0.12567,0.27992 -0.28019,0.27992 z m 0.31988,1.57851 -0.15981,-0.61966 0.75909,0.39979 z m 1.39832,-1.03902 c -0.9988,0 0,-2.51777 0,-2.51777 0,0 0.99854,2.51777 0,2.51777 z m -0.0405,-3.0136 c 0,0 -0.68447,-0.32306 -0.68447,-0.79931 0,-0.47572 0.29077,-0.47572 0.41804,-0.47572 0.12673,0 0.2667,0.21219 0.2667,0.47572 0,-0.2712 0.11774,-0.47572 0.26776,-0.47572 0.14922,0 0.41804,0.01 0.41804,0.47572 -10e-4,0.46593 -0.68607,0.79931 -0.68607,0.79931 z m 1.43934,4.05262 -0.60034,-0.21987 0.75909,-0.39979 z m 0.25902,-1.57851 c -0.15451,0 -0.27993,-0.12541 -0.27993,-0.27992 0,-0.15452 0.12542,-0.2802 0.27993,-0.2802 0.15452,0 0.28099,0.12568 0.28099,0.2802 0,0.15451 -0.12647,0.27992 -0.28099,0.27992 z m 1.66503,0.51832 -0.7493,0.0397 0.7493,-0.86889 z m -0.036,-1.54754 c -0.68897,0.68924 -1.90844,-1.90791 -1.90844,-1.90791 0,0 2.59715,1.21893 1.90844,1.90791 z m 0.95727,-2.10873 c 0.15451,0 0.27992,0.12541 0.27992,0.27993 0,0.15451 -0.12541,0.28019 -0.27992,0.28019 -0.15452,0 -0.28099,-0.12568 -0.28099,-0.28019 0,-0.15452 0.12647,-0.27993 0.28099,-0.27993 z m 0.44132,2.17884 -0.74877,0.0399 0.74877,-0.86915 z"
       id="path921"
       transform="matrix(0.92799428,0,0,-0.92799428,13.755677,299.06935)" />
    <path
       style="fill:#ffb3de;fill-opacity:1;stroke:none;stroke-width:0.264583;stroke-opacity:1;filter:url(#filter1073)"
       d="m 111.37066,141.8564 v 0.25824 h -1.33905 v -0.25824 h -1.03981 v 0.25824 h -1.31763 v -0.25824 h -1.07897 v 0.25824 h -1.55893 v -0.25824 h -1.05939 v 0.25824 h -1.33852 v -0.25824 h -1.03849 v 0.25824 h -1.33906 v -0.25824 h -0.512764 c 0,0 0,2.45613 0,2.93555 0,0.47969 1.192214,0.57944 1.192214,0.57944 0,0 -0.66701,0.77867 -0.26802,1.37875 0.39978,0.59954 1.30651,0.17991 1.30651,0.17991 0,0 -0.27966,0.91943 0.18045,1.37875 0.45878,0.45931 1.59887,-0.20003 1.59887,-0.20003 0,0 0.0998,1.05913 0.67839,1.31868 0.57918,0.25903 1.41844,-0.61965 1.41844,-0.61965 0,0 0.79533,0.82074 1.515,0.52361 0.64479,-0.26538 0.60325,-1.10331 0.60325,-1.10331 0,0 1.09908,0.57891 1.62825,0.0497 0.52969,-0.5297 0.11006,-1.4687 0.11006,-1.4687 0,0 1.2909,0.39608 1.57771,-0.24818 0.35931,-0.81042 -0.43868,-1.44965 -0.43868,-1.44965 0.63924,0.13996 1.06813,-0.43974 1.06813,-0.43974 v -1.52294 c 0,0.29792 -0.23601,0.53948 -0.52361,0.53948 -0.29025,0 -0.52361,-0.24156 -0.52361,-0.53948 0,-0.29792 0.23468,-0.53949 0.52361,-0.53949 0.28971,0 0.52361,0.24157 0.52361,0.53949 v -1.29223 z m -11.0691,1.83171 c -0.29025,0 -0.524146,-0.24156 -0.524146,-0.53948 0,-0.29792 0.235216,-0.53949 0.524146,-0.53949 0.28892,0 0.52361,0.24157 0.52361,0.53949 0,0.29792 -0.23469,0.53948 -0.52361,0.53948 z m 1.16654,0.40376 c 0.15452,0 0.2802,0.12541 0.2802,0.27993 0,0.15451 -0.12568,0.28019 -0.2802,0.28019 -0.15451,0 -0.28019,-0.12568 -0.28019,-0.28019 0,-0.15452 0.12568,-0.27993 0.28019,-0.27993 z m -0.29104,2.17884 v -0.8292 l 0.74877,0.86915 z m 1.36234,1.47743 v -0.8292 l 0.7493,0.86889 z m -0.0442,-1.54754 c -0.68898,-0.68898 1.90844,-1.90791 1.90844,-1.90791 0,0 -1.21894,2.59741 -1.90844,1.90791 z m 1.64253,1.02922 c -0.15452,0 -0.28019,-0.12541 -0.28019,-0.27992 0,-0.15452 0.12567,-0.2802 0.28019,-0.2802 0.15452,0 0.28019,0.12568 0.28019,0.2802 0,0.15451 -0.12567,0.27992 -0.28019,0.27992 z m 0.31988,1.57851 -0.15981,-0.61966 0.75909,0.39979 z m 1.39832,-1.03902 c -0.9988,0 0,-2.51777 0,-2.51777 0,0 0.99854,2.51777 0,2.51777 z m -0.0405,-3.0136 c 0,0 -0.68447,-0.32306 -0.68447,-0.79931 0,-0.47572 0.29077,-0.47572 0.41804,-0.47572 0.12673,0 0.2667,0.21219 0.2667,0.47572 0,-0.2712 0.11774,-0.47572 0.26776,-0.47572 0.14922,0 0.41804,0.01 0.41804,0.47572 -10e-4,0.46593 -0.68607,0.79931 -0.68607,0.79931 z m 1.43934,4.05262 -0.60034,-0.21987 0.75909,-0.39979 z m 0.25902,-1.57851 c -0.15451,0 -0.27993,-0.12541 -0.27993,-0.27992 0,-0.15452 0.12542,-0.2802 0.27993,-0.2802 0.15452,0 0.28099,0.12568 0.28099,0.2802 0,0.15451 -0.12647,0.27992 -0.28099,0.27992 z m 1.66503,0.51832 -0.7493,0.0397 0.7493,-0.86889 z m -0.036,-1.54754 c -0.68897,0.68924 -1.90844,-1.90791 -1.90844,-1.90791 0,0 2.59715,1.21893 1.90844,1.90791 z m 0.95727,-2.10873 c 0.15451,0 0.27992,0.12541 0.27992,0.27993 0,0.15451 -0.12541,0.28019 -0.27992,0.28019 -0.15452,0 -0.28099,-0.12568 -0.28099,-0.28019 0,-0.15452 0.12647,-0.27993 0.28099,-0.27993 z m 0.44132,2.17884 -0.74877,0.0399 0.74877,-0.86915 z"
       id="path923"
       transform="matrix(0.92799428,0,0,-0.92799428,1.4855339,299.06935)" />
  </g>
</svg>
